<svg xmlns="http://www.w3.org/2000/svg" xmlns:xlink="http://www.w3.org/1999/xlink" width="500" zoomAndPan="magnify" viewBox="0 0 375 374.999991" height="500" preserveAspectRatio="xMidYMid meet" version="1.2"><defs/><g id="e7517d1ef3"><rect x="0" width="375" y="0" height="374.999991" style="fill:#ffffff;fill-opacity:1;stroke:none;"/><rect x="0" width="375" y="0" height="374.999991" style="fill:#000000;fill-opacity:1;stroke:none;"/><g style="fill:#d9d9d9;fill-opacity:1;"><g transform="translate(67.222867, 241.409064)"><path style="stroke:none" d="M 79.542969 -16.132812 C 79.542969 -5.589844 71.078125 1.117188 55.265625 1.117188 C 38.335938 1.117188 25.714844 -10.863281 14.054688 -45.523438 L 13.097656 -45.523438 L 10.222656 0.796875 L 11.179688 0.796875 C 12.140625 -2.554688 14.695312 -3.035156 17.25 -3.035156 C 24.4375 -3.035156 37.375 2.554688 55.105469 2.554688 C 84.335938 2.554688 101.105469 -11.019531 101.105469 -31.625 C 101.105469 -53.828125 86.890625 -62.453125 66.925781 -69.160156 C 41.527344 -75.871094 32.105469 -82.578125 32.105469 -95.675781 C 32.105469 -105.417969 38.335938 -111.011719 52.710938 -111.011719 C 70.4375 -111.011719 80.503906 -99.988281 91.523438 -68.042969 L 92.480469 -68.042969 L 95.515625 -110.691406 L 94.558594 -110.691406 C 93.601562 -107.175781 90.40625 -106.699219 87.851562 -106.699219 C 80.34375 -106.699219 68.523438 -112.449219 52.710938 -112.449219 C 30.1875 -112.449219 10.222656 -102.066406 10.222656 -80.503906 C 10.222656 -62.132812 18.050781 -51.433594 44.085938 -42.167969 C 63.730469 -35.777344 79.542969 -31.625 79.542969 -16.132812 Z M 79.542969 -16.132812 "/></g></g><g style="fill:#d9d9d9;fill-opacity:1;"><g transform="translate(175.675754, 241.409064)"><path style="stroke:none" d="M 80.980469 -57.023438 C 112.289062 -58.9375 120.433594 -70.121094 120.433594 -84.65625 C 120.433594 -100.308594 110.53125 -109.890625 74.753906 -109.890625 L 5.109375 -109.890625 L 5.109375 -108.773438 L 7.667969 -108.773438 C 18.6875 -108.773438 22.363281 -105.578125 22.363281 -90.566406 L 22.363281 -19.328125 C 22.363281 -4.3125 18.6875 -1.117188 7.667969 -1.117188 L 5.109375 -1.117188 L 5.109375 0 L 77.628906 0 C 112.289062 0 124.90625 -10.542969 124.90625 -30.027344 C 124.90625 -45.363281 115.960938 -55.746094 80.980469 -57.023438 Z M 84.65625 -85.933594 C 84.65625 -68.203125 79.066406 -57.023438 61.335938 -57.023438 L 57.34375 -57.023438 L 57.34375 -108.773438 L 58.9375 -108.773438 C 76.667969 -108.773438 84.65625 -103.664062 84.65625 -85.933594 Z M 61.972656 -1.117188 L 57.34375 -1.117188 L 57.34375 -55.90625 L 61.335938 -55.90625 C 81.621094 -55.90625 89.128906 -48.558594 89.128906 -30.027344 C 89.128906 -11.339844 83.058594 -1.117188 61.972656 -1.117188 Z M 61.972656 -1.117188 "/></g></g></g></svg>